<?xml version="1.0" encoding="UTF-8" standalone="no"?>
<!-- Created with Inkscape (http://www.inkscape.org/) -->

<svg
   width="555.41077"
   height="555.41187"
   viewBox="0 0 146.95243 146.95272"
   version="1.1"
   id="svg325"
   xml:space="preserve"
   xmlns="http://www.w3.org/2000/svg"
   xmlns:svg="http://www.w3.org/2000/svg"><defs
     id="defs322" /><g
     id="layer1"
     transform="translate(-357.94312,-339.0759)"><path
       id="path785"
       style="opacity:1;fill:#000000;stroke-width:14.7009;stroke-linejoin:bevel;paint-order:fill markers stroke"
       d="m 376.80997,339.07591 v 7.88739 l -10.97945,10.97945 h -7.88739 v 7.88737 h 7.88739 v 3.37146 h -7.88739 v 7.88739 h 7.88739 v 3.37147 h -7.88739 v 7.88796 h 7.88739 v 3.37147 h -7.88739 v 7.88737 h 7.88739 v 3.37147 h -7.88739 v 7.88739 h 7.88739 v 1.68631 1.68515 h -7.88739 v 7.88738 h 7.88739 v 3.37146 h -7.88739 v 7.88739 h 7.88739 v 3.37145 h -7.88739 v 7.88798 h 7.88739 v 3.37146 h -7.88739 v 7.88738 h 7.88739 v 3.37147 h -7.88739 v 7.88733 h 7.88739 v 10e-4 l 10.97945,10.97945 v 7.88737 h 7.88798 v -7.88737 h 3.37145 v 7.88737 h 7.88739 v -7.88737 h 3.37146 v 7.88737 h 7.88738 v -7.88737 h 3.37146 v 7.88737 h 7.88739 v -7.88737 h 3.37147 v 7.88737 h 7.88737 v -7.88737 h 1.68574 1.68573 v 7.88737 h 7.88796 v -7.88737 h 3.37147 v 7.88737 h 7.88739 v -7.88737 h 3.37146 v 7.88737 h 7.88738 v -7.88737 h 3.37146 v 7.88737 h 7.88739 v -7.88737 h 3.37145 v 7.88737 h 7.88739 v -7.88737 l 10.97945,-10.97945 v -10e-4 h 7.88798 v -7.88733 h -7.88798 v -3.37147 h 7.88798 v -7.88738 h -7.88798 v -3.37146 h 7.88798 v -7.88798 h -7.88798 v -3.37145 h 7.88798 v -7.88739 h -7.88798 v -3.37146 h 7.88798 v -7.88738 h -7.88798 v -1.68515 -1.68631 h 7.88798 v -7.88739 h -7.88798 v -3.37147 h 7.88798 v -7.88737 h -7.88798 v -3.37147 h 7.88798 v -7.88796 h -7.88798 v -3.37147 h 7.88798 v -7.88739 h -7.88798 v -3.37146 h 7.88798 v -7.88737 h -7.88798 L 486.02814,346.9633 v -7.88739 h -7.88739 v 7.88739 h -3.37145 v -7.88739 h -7.88739 v 7.88739 h -3.37146 v -7.88739 h -7.88738 v 7.88739 h -3.37146 v -7.88739 h -7.88739 v 7.88739 h -3.37147 v -7.88739 h -7.88796 v 7.88739 h -1.68573 -1.68574 v -7.88739 h -7.88737 v 7.88739 h -3.37147 v -7.88739 h -7.88739 v 7.88739 h -3.37146 v -7.88739 h -7.88738 v 7.88739 h -3.37146 v -7.88739 h -7.88739 v 7.88739 h -3.37145 v -7.88739 z m 2.42514,16.93619 4.35576,2.51457 v 5.02971 l -4.35576,2.51456 -4.35578,-2.51456 v -5.02971 z m 104.3679,0 4.35577,2.51457 v 5.02971 l -4.35577,2.51456 -4.35577,-2.51456 v -5.02971 z m -59.44767,5.34302 c 2.31343,0.007 4.29834,0.61329 5.88369,1.8225 l 1.38003,1.0527 1.38061,-1.0527 c 3.62367,-2.7639 9.33431,-2.37514 16.28565,1.10823 3.72333,1.86578 10.94154,6.78293 12.00642,8.17906 1.73006,2.2682 2.30926,4.11984 2.28544,7.30288 l -0.0222,2.95762 2.11828,0.87794 c 5.4248,2.24845 9.38173,9.39984 8.34798,15.08739 -0.31758,1.74731 -0.25817,2.01218 0.75402,3.3697 2.89202,3.87868 3.61685,9.5959 1.78626,14.08905 l -1.0001,2.45378 0.76455,1.72781 c 2.53748,5.73632 1.18052,12.57227 -3.32762,16.76786 -1.92604,1.7925 -1.98016,1.90486 -2.43742,5.02503 -0.83383,5.69013 -3.75975,10.09927 -8.31291,12.52607 -1.45185,0.77381 -3.34524,2.27689 -4.72401,3.75081 -5.06147,5.41072 -12.42065,6.84582 -19.0346,3.71164 -2.37148,-1.12378 -4.94394,-3.23992 -6.21802,-5.11505 l -0.65232,-0.95977 -0.65231,0.95977 c -3.2739,4.81835 -9.92947,7.53226 -16.04307,6.54126 -3.37342,-0.54683 -6.59679,-2.34541 -9.20897,-5.13785 -1.37878,-1.47392 -3.27216,-2.977 -4.72401,-3.75081 -4.55317,-2.4268 -7.47908,-6.83594 -8.31291,-12.52607 -0.45726,-3.12017 -0.51196,-3.23253 -2.438,-5.02503 -4.50814,-4.19559 -5.86451,-11.03154 -3.32704,-16.76786 l 0.76455,-1.72781 -1.0001,-2.45378 c -1.83059,-4.49315 -1.10576,-10.21037 1.78627,-14.08905 1.01217,-1.35752 1.0716,-1.62239 0.75401,-3.3697 -1.03373,-5.68755 2.92256,-12.83894 8.34741,-15.08739 l 2.11826,-0.87794 -0.0222,-2.95762 c -0.0239,-3.18304 0.55598,-5.03468 2.28603,-7.30288 1.06488,-1.39613 8.2831,-6.31328 12.00643,-8.17906 3.91013,-1.9594 7.42754,-2.94005 10.40195,-2.93073 z m -0.055,4.93853 c -1.73134,0.0157 -3.89199,0.49053 -6.05145,1.39639 -3.07013,1.28789 -3.07759,1.2951 -2.13872,1.90609 1.96187,1.27677 3.75575,3.16416 4.43176,4.66322 0.65445,1.45134 0.65832,1.61795 0.0602,2.53093 -0.35223,0.53759 -1.10268,1.09388 -1.66761,1.23566 -0.89355,0.22426 -1.28447,-0.0265 -3.00438,-1.92888 -1.08737,-1.20264 -2.46869,-2.36415 -3.06986,-2.5812 -4.77763,-1.72487 -9.82071,3.24698 -8.04111,7.92771 0.28086,0.7387 0.65697,0.99636 1.45602,0.9966 1.43572,3.8e-4 5.44951,1.92991 7.18655,3.45504 1.97167,1.73118 3.65259,4.51466 4.35461,7.20994 1.11137,4.26674 0.53852,6.02982 -1.95986,6.02982 -1.54506,0 -2.48534,-1.13923 -2.48534,-3.01082 0,-0.70676 -0.26752,-1.92501 -0.59445,-2.70746 -2.78615,-6.66818 -10.86579,-8.3862 -15.87649,-3.37554 -2.81481,2.81483 -3.2671,4.90932 -2.31875,10.73454 0.21103,1.29632 0.0697,1.63464 -1.36074,3.25981 -1.58566,1.80139 -2.75772,4.67263 -2.75772,6.75636 0,4.68239 3.86631,9.02255 8.52977,9.57488 2.44678,0.2898 3.6035,1.13917 3.6035,2.64667 0,1.27357 -1.2778,2.52749 -2.56658,2.51807 -1.65312,-0.012 -5.2259,-1.0538 -6.98198,-2.03528 l -1.79503,-1.00301 -0.43664,1.61909 c -1.16602,4.32269 1.13559,9.08373 5.47629,11.3284 0.63777,0.3298 1.17914,0.81348 1.20292,1.07492 0.0239,0.26147 0.0676,1.87349 0.097,3.58188 0.0442,2.54989 0.24912,3.50388 1.14505,5.3284 1.29773,2.64267 3.60958,4.74114 6.23031,5.65514 1.38209,0.48202 2.14747,1.04613 2.7887,2.05573 1.31828,2.07558 4.17855,4.42037 6.27881,5.1472 2.36056,0.81688 5.94474,0.63204 8.3474,-0.43079 2.25873,-0.99916 4.53379,-3.26511 5.7586,-5.7358 l 0.95451,-1.92479 0.1169,-28.92627 c 0.0641,-15.90926 0.0131,-29.48882 -0.11277,-30.17654 -0.33895,-1.84985 -1.92869,-3.53139 -3.61871,-3.82738 -2.18928,-0.38346 -3.18033,-1.1629 -3.18033,-2.50229 0,-1.28369 1.18312,-2.7136 2.23283,-2.69926 0.78991,0.009 3.09264,0.55174 4.07697,0.958 0.63112,0.26047 0.67921,-0.17924 0.67921,-6.18003 0,-6.87638 -0.27495,-8.26297 -1.93065,-9.73561 -0.62515,-0.556 -1.71214,-0.82181 -3.05874,-0.80954 z m 14.63789,0 c -1.34659,-0.0122 -2.43361,0.25354 -3.05873,0.80954 -1.77655,1.58009 -1.93065,2.63623 -1.93065,13.22982 0,9.32876 0.0431,9.93759 0.67979,9.67481 0.98434,-0.40625 3.28648,-0.94784 4.07638,-0.95859 1.04972,-0.015 2.23283,1.41618 2.23283,2.69986 0,1.33153 -0.99015,2.11925 -3.13532,2.49411 -0.81405,0.14227 -1.85781,0.73231 -2.52392,1.42737 l -1.1357,1.18539 -0.11107,19.19416 c -0.0611,10.55672 -0.009,19.19358 0.11277,19.19358 0.12274,0 1.13053,-0.61055 2.23925,-1.35723 1.10874,-0.74668 2.86757,-1.64039 3.90864,-1.98617 1.80792,-0.6005 1.93871,-0.59479 2.91904,0.13444 2.0845,1.5503 1.42162,3.59894 -1.47648,4.56152 -2.47789,0.82301 -5.52945,3.66757 -6.6716,6.2192 -1.02159,2.28218 -1.18736,6.27319 -0.34778,8.36552 2.42932,6.05399 8.41646,9.01646 14.35032,7.10004 v -5.8e-4 c 2.20956,-0.7136 5.04801,-2.98867 6.41676,-5.14369 0.64122,-1.0096 1.406,-1.57371 2.78811,-2.05573 2.62071,-0.914 4.9326,-3.01247 6.23031,-5.65514 0.89594,-1.82452 1.10083,-2.77851 1.14506,-5.3284 0.0297,-1.70839 0.0737,-3.32041 0.0976,-3.58188 0.0239,-0.26144 0.56459,-0.74512 1.20233,-1.07492 4.34071,-2.24467 6.64229,-7.00571 5.47629,-11.3284 l -0.43664,-1.61909 -1.79503,1.00301 c -1.75608,0.98148 -5.32886,2.02321 -6.98198,2.03528 -1.2888,0.009 -2.56658,-1.2445 -2.56658,-2.51807 0,-1.5075 1.15674,-2.35687 3.60351,-2.64667 3.64179,-0.43132 6.69665,-2.93328 7.9622,-6.52022 1.1475,-3.25233 0.32046,-6.95946 -2.18958,-9.81102 -1.43052,-1.62517 -1.57179,-1.96349 -1.36073,-3.25981 0.94833,-5.82522 0.49546,-7.91971 -2.31934,-10.73454 -5.01067,-5.01066 -13.08977,-3.29264 -15.8759,3.37554 -0.32695,0.78245 -0.59445,2.0007 -0.59445,2.70746 0,1.8354 -0.94405,3.01082 -2.41812,3.01082 -2.56572,0 -3.14757,-1.73019 -2.02767,-6.02982 0.70202,-2.69528 2.38348,-5.47876 4.35519,-7.20994 1.73703,-1.52513 5.75026,-3.45466 7.18597,-3.45504 0.79905,-2.4e-4 1.17518,-0.2579 1.45602,-0.9966 1.77962,-4.68073 -3.26349,-9.65258 -8.04111,-7.92771 -0.60115,0.21705 -1.98248,1.37856 -3.06985,2.5812 -1.71994,1.90229 -2.11084,2.15314 -3.00439,1.92888 -0.56495,-0.14177 -1.31535,-0.69807 -1.66761,-1.23566 -0.59818,-0.91298 -0.59433,-1.07959 0.0602,-2.53093 0.676,-1.49906 2.46987,-3.38645 4.43177,-4.66322 0.93884,-0.61099 0.93138,-0.6182 -2.13873,-1.90609 -2.15944,-0.90586 -4.3201,-1.38063 -6.05145,-1.39639 z m -38.65074,27.82446 c 0.58448,-0.0102 1.15357,0.22086 1.58051,0.69265 0.35984,0.3976 0.82058,1.74284 1.02349,2.98977 0.78017,4.79339 4.13188,7.96021 8.73492,8.25329 2.94126,0.18731 4.69913,-0.34004 7.00654,-2.10132 1.93839,-1.47962 3.23456,-1.66926 4.19035,-0.61314 1.14151,1.26134 0.81994,2.96903 -0.81363,4.32245 -1.71542,1.42125 -5.1442,3.12129 -6.29519,3.12129 -0.53071,0 -0.94401,0.36849 -1.19883,1.0679 -1.22117,3.35239 -3.45233,5.84539 -6.33902,7.0831 -2.15742,0.92504 -4.53493,1.2274 -5.48329,0.69732 -1.04704,-0.58525 -1.34606,-1.09028 -1.35314,-2.28485 -0.007,-1.27471 1.09823,-2.29245 2.49001,-2.29245 1.50424,0 3.55032,-1.0492 4.69187,-2.40585 1.0662,-1.2671 1.2192,-1.86291 0.48047,-1.86868 -0.83183,-0.007 -4.48781,-1.84611 -5.93395,-2.98568 -3.9456,-3.10921 -6.5909,-10.7913 -4.45223,-12.92997 0.48685,-0.48683 1.08665,-0.73619 1.67112,-0.74583 z m 59.25479,0.35772 c 1.8184,0 2.50426,1.16957 2.26088,3.85368 -0.50142,5.52965 -5.0129,11.07407 -10.1699,12.49801 -1.60119,0.44211 -1.66044,0.65552 -0.5664,2.04637 0.99218,1.26135 2.41202,2.02501 4.44404,2.39006 0.84679,0.15211 1.84569,0.54398 2.21939,0.87035 0.88523,0.7731 0.86941,2.51037 -0.0304,3.32469 -0.79724,0.7215 -3.39321,0.80463 -5.35764,0.17185 h -5.8e-4 c -2.35105,-0.75732 -4.91331,-3.10125 -6.28349,-5.74808 -1.10105,-2.12696 -1.51364,-2.57094 -2.72382,-2.93307 -3.85165,-1.15254 -7.05563,-3.65206 -7.05563,-5.50377 0,-1.33088 1.04113,-2.42805 2.30414,-2.42805 0.48633,0 1.54932,0.52651 2.36201,1.17019 4.10712,3.25288 8.9984,3.14965 12.80196,-0.27004 1.98402,-1.78385 2.8458,-3.47493 3.27617,-6.42845 0.31437,-2.15736 1.03037,-3.01374 2.51925,-3.01374 z m -38.4842,25.75062 c 0.89424,-0.002 1.57182,0.21634 2.12236,0.6494 2.18023,1.715 0.96232,3.99279 -2.34447,4.38441 -4.7274,0.55991 -7.90556,3.70473 -8.77,8.67881 -0.19606,1.12816 -0.0549,1.32351 1.89323,2.61686 2.8574,1.89723 5.04231,4.76415 6.00409,7.87804 0.941,3.04662 0.99197,4.70697 0.18004,5.86614 -0.76918,1.09817 -2.61146,1.14178 -3.66665,0.0865 -0.49835,-0.49835 -0.77787,-1.29842 -0.78032,-2.23283 -8.7e-4,-0.8008 -0.41349,-2.3365 -0.91475,-3.41296 -1.4491,-3.11196 -4.21825,-5.089 -7.70561,-5.502 -2.22083,-0.26304 -3.41179,-1.17368 -3.41179,-2.6081 0,-1.1761 0.9274,-2.13539 2.33805,-2.41752 0.92803,-0.18559 1.11606,-0.453 1.33327,-1.90142 0.67392,-4.494 4.71355,-9.41279 9.00964,-10.9701 2.05551,-0.7451 3.56317,-1.11251 4.71291,-1.11525 z m 23.98598,2.39883 c 6.14608,0 11.60717,4.71867 13.10766,11.32549 0.41731,1.83746 0.64851,2.21653 1.42562,2.33511 3.08592,0.47094 3.03222,4.78189 -0.0596,4.78189 -1.75804,0 -4.77421,1.12492 -6.21685,2.31817 -1.76404,1.45912 -3.43225,4.71862 -3.43225,6.70609 0,1.06905 -0.27164,1.76564 -0.95334,2.44735 -1.17156,1.17159 -1.74449,1.19215 -3.11953,0.11051 h -5.8e-4 c -1.00384,-0.7896 -1.05736,-0.97944 -0.84228,-3.00907 0.49586,-4.67923 2.64898,-8.32466 6.4606,-10.93795 2.01823,-1.38373 2.12209,-1.53473 2.00194,-2.92957 -0.27391,-3.17896 -2.73573,-6.50574 -5.74457,-7.76289 -0.70548,-0.29478 -2.19728,-0.66793 -3.31534,-0.82883 -1.65636,-0.23836 -2.14346,-0.48951 -2.62855,-1.35665 -0.53553,-0.95733 -0.53467,-1.17128 0.007,-2.13171 0.5663,-1.0053 0.76002,-1.06791 3.31008,-1.06791 z m -65.60899,36.4086 4.35577,2.51457 v 5.0297 l -4.35577,2.51462 -4.35577,-2.51462 v -5.0297 z m 104.36791,0 4.35577,2.51457 v 5.0297 l -4.35577,2.51462 -4.35578,-2.51462 v -5.0297 z" /></g></svg>
